<svg width="187" height="138" viewBox="0 0 187 138" fill="none" xmlns="http://www.w3.org/2000/svg">
<rect x="6" y="6" width="175" height="126" rx="43" stroke="#22211F" stroke-width="12"/>
<circle cx="11" cy="11" r="11" transform="matrix(1 0 0 -1 130 101)" fill="#FFEFBE"/>
<circle cx="10" cy="10" r="10" transform="matrix(1 0 0 -1 59 58)" fill="#FF4B4B"/>
<path d="M30.014 30.983H50.057V39.908H40.877V43.682H49.904V52.148H40.877V65H30.014V30.983ZM52.1094 48.017C52.1094 45.569 52.5684 43.257 53.4864 41.081C54.4384 38.905 55.7134 37.018 57.3114 35.42C58.9434 33.788 60.8474 32.513 63.0234 31.595C65.1994 30.643 67.5114 30.167 69.9594 30.167C72.4074 30.167 74.7194 30.643 76.8954 31.595C79.0714 32.513 80.9584 33.788 82.5564 35.42C84.1884 37.018 85.4634 38.905 86.3814 41.081C87.3334 43.257 87.8094 45.569 87.8094 48.017C87.8094 50.465 87.3334 52.777 86.3814 54.953C85.4634 57.129 84.1884 59.033 82.5564 60.665C80.9584 62.263 79.0714 63.538 76.8954 64.49C74.7194 65.408 72.4074 65.867 69.9594 65.867C67.5114 65.867 65.1994 65.408 63.0234 64.49C60.8474 63.538 58.9434 62.263 57.3114 60.665C55.7134 59.033 54.4384 57.129 53.4864 54.953C52.5684 52.777 52.1094 50.465 52.1094 48.017ZM62.8194 48.017C62.8194 49.003 63.0064 49.938 63.3804 50.822C63.7544 51.672 64.2644 52.42 64.9104 53.066C65.5564 53.712 66.3044 54.222 67.1544 54.596C68.0384 54.97 68.9734 55.157 69.9594 55.157C70.9454 55.157 71.8634 54.97 72.7134 54.596C73.5974 54.222 74.3624 53.712 75.0084 53.066C75.6544 52.42 76.1644 51.672 76.5384 50.822C76.9124 49.938 77.0994 49.003 77.0994 48.017C77.0994 47.031 76.9124 46.113 76.5384 45.263C76.1644 44.379 75.6544 43.614 75.0084 42.968C74.3624 42.322 73.5974 41.812 72.7134 41.438C71.8634 41.064 70.9454 40.877 69.9594 40.877C68.9734 40.877 68.0384 41.064 67.1544 41.438C66.3044 41.812 65.5564 42.322 64.9104 42.968C64.2644 43.614 63.7544 44.379 63.3804 45.263C63.0064 46.113 62.8194 47.031 62.8194 48.017ZM90.6263 30.983H102.356C104.532 30.983 106.538 31.272 108.374 31.85C110.244 32.428 111.859 33.278 113.219 34.4C114.579 35.522 115.633 36.916 116.381 38.582C117.163 40.214 117.554 42.101 117.554 44.243C117.554 45.943 117.316 47.388 116.84 48.578C116.364 49.768 115.837 50.754 115.259 51.536C114.579 52.42 113.814 53.168 112.964 53.78L119.339 65H106.589L101.489 56.381V65H90.6263V30.983ZM101.489 47.711H102.05C103.342 47.711 104.43 47.422 105.314 46.844C106.232 46.266 106.691 45.297 106.691 43.937C106.691 42.577 106.232 41.608 105.314 41.03C104.43 40.452 103.342 40.163 102.05 40.163H101.489V47.711ZM120.36 30.983H129.336L138.21 44.039L147.033 30.983H156.009V65H145.146V52.76L138.21 62.96L131.223 52.76V65H120.36V30.983ZM26.7518 72.983H38.4818C40.6578 72.983 42.6638 73.272 44.4998 73.85C46.3698 74.428 47.9848 75.278 49.3448 76.4C50.7048 77.522 51.7588 78.916 52.5068 80.582C53.2888 82.214 53.6798 84.101 53.6798 86.243C53.6798 87.943 53.4418 89.388 52.9658 90.578C52.4898 91.768 51.9628 92.754 51.3848 93.536C50.7048 94.42 49.9398 95.168 49.0898 95.78L55.4648 107H42.7148L37.6148 98.381V107H26.7518V72.983ZM37.6148 89.711H38.1758C39.4678 89.711 40.5558 89.422 41.4398 88.844C42.3578 88.266 42.8168 87.297 42.8168 85.937C42.8168 84.577 42.3578 83.608 41.4398 83.03C40.5558 82.452 39.4678 82.163 38.1758 82.163H37.6148V89.711ZM56.4852 72.983H68.2152C70.3912 72.983 72.3972 73.272 74.2332 73.85C76.1032 74.428 77.7182 75.278 79.0782 76.4C80.4382 77.522 81.4922 78.916 82.2402 80.582C83.0222 82.214 83.4132 84.101 83.4132 86.243C83.4132 87.943 83.1752 89.388 82.6992 90.578C82.2232 91.768 81.6962 92.754 81.1182 93.536C80.4382 94.42 79.6732 95.168 78.8232 95.78L85.1982 107H72.4482L67.3482 98.381V107H56.4852V72.983ZM67.3482 89.711H67.9092C69.2012 89.711 70.2892 89.422 71.1732 88.844C72.0912 88.266 72.5502 87.297 72.5502 85.937C72.5502 84.577 72.0912 83.608 71.1732 83.03C70.2892 82.452 69.2012 82.163 67.9092 82.163H67.3482V89.711ZM86.2186 72.983H97.7446V107H86.2186V72.983ZM105.797 81.908H99.5244V72.983H123.29V81.908H117.017V107H105.797V81.908ZM124.301 90.017C124.301 87.569 124.76 85.257 125.678 83.081C126.63 80.905 127.905 79.018 129.503 77.42C131.135 75.788 133.039 74.513 135.215 73.595C137.391 72.643 139.703 72.167 142.151 72.167C144.599 72.167 146.911 72.643 149.087 73.595C151.263 74.513 153.15 75.788 154.748 77.42C156.38 79.018 157.655 80.905 158.573 83.081C159.525 85.257 160.001 87.569 160.001 90.017C160.001 92.465 159.525 94.777 158.573 96.953C157.655 99.129 156.38 101.033 154.748 102.665C153.15 104.263 151.263 105.538 149.087 106.49C146.911 107.408 144.599 107.867 142.151 107.867C139.703 107.867 137.391 107.408 135.215 106.49C133.039 105.538 131.135 104.263 129.503 102.665C127.905 101.033 126.63 99.129 125.678 96.953C124.76 94.777 124.301 92.465 124.301 90.017ZM135.011 90.017C135.011 91.003 135.198 91.938 135.572 92.822C135.946 93.672 136.456 94.42 137.102 95.066C137.748 95.712 138.496 96.222 139.346 96.596C140.23 96.97 141.165 97.157 142.151 97.157C143.137 97.157 144.055 96.97 144.905 96.596C145.789 96.222 146.554 95.712 147.2 95.066C147.846 94.42 148.356 93.672 148.73 92.822C149.104 91.938 149.291 91.003 149.291 90.017C149.291 89.031 149.104 88.113 148.73 87.263C148.356 86.379 147.846 85.614 147.2 84.968C146.554 84.322 145.789 83.812 144.905 83.438C144.055 83.064 143.137 82.877 142.151 82.877C141.165 82.877 140.23 83.064 139.346 83.438C138.496 83.812 137.748 84.322 137.102 84.968C136.456 85.614 135.946 86.379 135.572 87.263C135.198 88.113 135.011 89.031 135.011 90.017Z" fill="#22211F"/>
</svg>
