<svg width="164" height="46" viewBox="0 0 164 46" fill="none" xmlns="http://www.w3.org/2000/svg">
<path fill-rule="evenodd" clip-rule="evenodd" d="M141.165 6.27273H22.8354C13.6633 6.27273 6.22785 13.7618 6.22785 23C6.22785 32.2382 13.6633 39.7273 22.8354 39.7273H141.165C150.337 39.7273 157.772 32.2382 157.772 23C157.772 13.7618 150.337 6.27273 141.165 6.27273ZM22.8354 0C10.2238 0 0 10.2975 0 23C0 35.7025 10.2238 46 22.8354 46H141.165C153.776 46 164 35.7025 164 23C164 10.2975 153.776 0 141.165 0H22.8354Z" fill="#22211F"/>
<path d="M131.86 23.0088C131.86 21.7383 132.099 20.5384 132.575 19.4091C133.069 18.2798 133.731 17.3005 134.56 16.4711C135.407 15.6241 136.395 14.9624 137.525 14.486C138.654 13.9919 139.854 13.7449 141.124 13.7449C142.395 13.7449 143.595 13.9919 144.724 14.486C145.853 14.9624 146.833 15.6241 147.662 16.4711C148.509 17.3005 149.171 18.2798 149.647 19.4091C150.141 20.5384 150.388 21.7383 150.388 23.0088C150.388 24.2793 150.141 25.4792 149.647 26.6085C149.171 27.7378 148.509 28.726 147.662 29.573C146.833 30.4023 145.853 31.064 144.724 31.5581C143.595 32.0345 142.395 32.2727 141.124 32.2727C139.854 32.2727 138.654 32.0345 137.525 31.5581C136.395 31.064 135.407 30.4023 134.56 29.573C133.731 28.726 133.069 27.7378 132.575 26.6085C132.099 25.4792 131.86 24.2793 131.86 23.0088ZM137.419 23.0088C137.419 23.5205 137.516 24.0058 137.71 24.4646C137.904 24.9057 138.169 25.2939 138.504 25.6292C138.839 25.9644 139.227 26.2291 139.668 26.4232C140.127 26.6173 140.612 26.7144 141.124 26.7144C141.636 26.7144 142.112 26.6173 142.554 26.4232C143.012 26.2291 143.409 25.9644 143.745 25.6292C144.08 25.2939 144.345 24.9057 144.539 24.4646C144.733 24.0058 144.83 23.5205 144.83 23.0088C144.83 22.4971 144.733 22.0206 144.539 21.5795C144.345 21.1207 144.08 20.7237 143.745 20.3884C143.409 20.0532 143.012 19.7885 142.554 19.5944C142.112 19.4003 141.636 19.3032 141.124 19.3032C140.612 19.3032 140.127 19.4003 139.668 19.5944C139.227 19.7885 138.839 20.0532 138.504 20.3884C138.169 20.7237 137.904 21.1207 137.71 21.5795C137.516 22.0206 137.419 22.4971 137.419 23.0088Z" fill="#22211F"/>
<path d="M122.257 18.8002H119.001V14.1682H131.336V18.8002H128.08V31.8226H122.257V18.8002Z" fill="#22211F"/>
<path d="M112.096 14.1682H118.078V31.8226H112.096V14.1682Z" fill="#22211F"/>
<path d="M96.6646 14.1682H102.752C103.882 14.1682 104.923 14.3182 105.876 14.6182C106.846 14.9182 107.684 15.3593 108.39 15.9416C109.096 16.5239 109.643 17.2474 110.031 18.112C110.437 18.959 110.64 19.9383 110.64 21.05C110.64 21.9323 110.516 22.6822 110.269 23.2998C110.022 23.9174 109.749 24.4291 109.449 24.835C109.096 25.2937 108.699 25.6819 108.258 25.9996L111.566 31.8226H104.949L102.302 27.3495V31.8226H96.6646V14.1682ZM102.302 22.8498H102.594C103.264 22.8498 103.829 22.6998 104.287 22.3999C104.764 22.0999 105.002 21.597 105.002 20.8912C105.002 20.1854 104.764 19.6825 104.287 19.3825C103.829 19.0825 103.264 18.9325 102.594 18.9325H102.302V22.8498Z" fill="#22211F"/>
<path d="M81.2334 14.1682H87.3211C88.4504 14.1682 89.4915 14.3182 90.4443 14.6182C91.4149 14.9182 92.253 15.3593 92.9588 15.9416C93.6647 16.5239 94.2117 17.2474 94.5999 18.112C95.0057 18.959 95.2086 19.9383 95.2086 21.05C95.2086 21.9323 95.0851 22.6822 94.8381 23.2998C94.5911 23.9174 94.3175 24.4291 94.0176 24.835C93.6647 25.2937 93.2676 25.6819 92.8265 25.9996L96.135 31.8226H89.518L86.8711 27.3495V31.8226H81.2334V14.1682ZM86.8711 22.8498H87.1623C87.8328 22.8498 88.3975 22.6998 88.8562 22.3999C89.3327 22.0999 89.5709 21.597 89.5709 20.8912C89.5709 20.1854 89.3327 19.6825 88.8562 19.3825C88.3975 19.0825 87.8328 18.9325 87.1623 18.9325H86.8711V22.8498Z" fill="#22211F"/>
<path d="M60.891 14.1682H65.5494L70.1549 20.9441L74.7339 14.1682H79.3924V31.8226H73.7546V25.4702L70.1549 30.7639L66.5287 25.4702V31.8226H60.891V14.1682Z" fill="#22211F"/>
<path d="M45.4597 14.1682H51.5474C52.6768 14.1682 53.7178 14.3182 54.6707 14.6182C55.6412 14.9182 56.4794 15.3593 57.1852 15.9416C57.891 16.5239 58.438 17.2474 58.8262 18.112C59.2321 18.959 59.435 19.9383 59.435 21.05C59.435 21.9323 59.3115 22.6822 59.0645 23.2998C58.8174 23.9174 58.5439 24.4291 58.2439 24.835C57.891 25.2937 57.494 25.6819 57.0529 25.9996L60.3614 31.8226H53.7443L51.0975 27.3495V31.8226H45.4597V14.1682ZM51.0975 22.8498H51.3886C52.0592 22.8498 52.6238 22.6998 53.0826 22.3999C53.559 22.0999 53.7972 21.597 53.7972 20.8912C53.7972 20.1854 53.559 19.6825 53.0826 19.3825C52.6238 19.0825 52.0592 18.9325 51.3886 18.9325H51.0975V22.8498Z" fill="#22211F"/>
<path d="M25.4699 23.0088C25.4699 21.7383 25.7081 20.5384 26.1846 19.4091C26.6786 18.2798 27.3403 17.3005 28.1697 16.4711C29.0167 15.6241 30.0048 14.9624 31.1341 14.486C32.2635 13.9919 33.4634 13.7449 34.7338 13.7449C36.0043 13.7449 37.2042 13.9919 38.3335 14.486C39.4628 14.9624 40.4422 15.6241 41.2715 16.4711C42.1185 17.3005 42.7802 18.2798 43.2566 19.4091C43.7507 20.5384 43.9978 21.7383 43.9978 23.0088C43.9978 24.2793 43.7507 25.4792 43.2566 26.6085C42.7802 27.7378 42.1185 28.726 41.2715 29.573C40.4422 30.4023 39.4628 31.064 38.3335 31.5581C37.2042 32.0345 36.0043 32.2727 34.7338 32.2727C33.4634 32.2727 32.2635 32.0345 31.1341 31.5581C30.0048 31.064 29.0167 30.4023 28.1697 29.573C27.3403 28.726 26.6786 27.7378 26.1846 26.6085C25.7081 25.4792 25.4699 24.2793 25.4699 23.0088ZM31.0283 23.0088C31.0283 23.5205 31.1253 24.0058 31.3194 24.4646C31.5135 24.9057 31.7782 25.2939 32.1135 25.6292C32.4487 25.9644 32.8369 26.2291 33.2781 26.4232C33.7369 26.6173 34.2221 26.7144 34.7338 26.7144C35.2456 26.7144 35.722 26.6173 36.1631 26.4232C36.6219 26.2291 37.0189 25.9644 37.3542 25.6292C37.6895 25.2939 37.9541 24.9057 38.1483 24.4646C38.3424 24.0058 38.4394 23.5205 38.4394 23.0088C38.4394 22.4971 38.3424 22.0206 38.1483 21.5795C37.9541 21.1207 37.6895 20.7237 37.3542 20.3884C37.0189 20.0532 36.6219 19.7885 36.1631 19.5944C35.722 19.4003 35.2456 19.3032 34.7338 19.3032C34.2221 19.3032 33.7369 19.4003 33.2781 19.5944C32.8369 19.7885 32.4487 20.0532 32.1135 20.3884C31.7782 20.7237 31.5135 21.1207 31.3194 21.5795C31.1253 22.0206 31.0283 22.4971 31.0283 23.0088Z" fill="#22211F"/>
<path d="M14.0027 14.1682H24.4048V18.8002H19.6405V20.7588H24.3254V25.1526H19.6405V31.8226H14.0027V14.1682Z" fill="#22211F"/>
<path d="M145 23C145 20.7909 143.209 19 141 19C138.791 19 137 20.7909 137 23C137 25.2091 138.791 27 141 27C143.209 27 145 25.2091 145 23Z" fill="#FFEFBE"/>
<path d="M39 23C39 20.7909 37.2091 19 35 19C32.7909 19 31 20.7909 31 23C31 25.2091 32.7909 27 35 27C37.2091 27 39 25.2091 39 23Z" fill="#FF4B4B"/>
</svg>
